# xmcd CD database file
#
# Track frame offsets:
#	150
#	15847
#	33247
#	45453
#	60208
#	76221
#	95894
#	110047
#	121734
#	140890
#
# Disc length: 2035 seconds
#
# Revision: 0
# Processed by: cddbd v1.5.2PL0 Copyright (c) Steve Scherf et al.
# Submitted via: CDex 1.70beta2
#
DISCID=7707f10a
DTITLE=Johnny Zamot - Tell It Like It Is
DYEAR=1900
DGENRE=Salsa
TTITLE0=Babby Bring It To Me - Boogaloo
TTITLE1=Tu Baila Boogaloo
TTITLE2=You Cheated On Me - Boogaloo
TTITLE3=Harlem Boogaloo
TTITLE4=Munneca de los ojos verde - Mambo
TTITLE5=Latino Baby - Boogaloo
TTITLE6=Caminando - Boogaloo
TTITLE7=Hey Girl - Boogaloo
TTITLE8=Johnny s Boogaloo
TTITLE9=You Dig - Boogaloo
EXTD=
EXTT0=
EXTT1=
EXTT2=
EXTT3=
EXTT4=
EXTT5=
EXTT6=
EXTT7=
EXTT8=
EXTT9=
PLAYORDER=
